<?xml version="1.0" encoding="UTF-8"?>
<svg width="512px" height="512px" viewBox="0 0 512 512" version="1.1" xmlns="http://www.w3.org/2000/svg" xmlns:xlink="http://www.w3.org/1999/xlink">
    <title>Logo-C98Insignts-512x512</title>
    <defs>
        <linearGradient x1="0.915865385%" y1="0.928605769%" x2="95.496875%" y2="95.5098558%" id="linearGradient-1">
            <stop stop-color="#FEEB6A" offset="0%"></stop>
            <stop stop-color="#FAE567" offset="20.1%"></stop>
            <stop stop-color="#EED35E" offset="47.9%"></stop>
            <stop stop-color="#DBB650" offset="80.1%"></stop>
            <stop stop-color="#C9952B" offset="100%"></stop>
        </linearGradient>
    </defs>
    <g id="Page-1" stroke="none" stroke-width="1" fill="none" fill-rule="evenodd">
        <g id="Logo-C98Insignts-512x512">
            <rect id="Rectangle" fill="#131415" x="0" y="0" width="512" height="512" rx="96"></rect>
            <g id="logo-c98-insights" fill="url(#linearGradient-1)" fill-rule="nonzero">
                <path d="M418.461538,0 L93.5384615,0 C41.8461538,0 0,41.8461538 0,93.5384615 L0,418.461538 C0,470.153846 41.8461538,512 93.5384615,512 L418.461538,512 C470.153846,512 512,470.153846 512,418.461538 L512,93.5384615 C512,41.8461538 470.153846,0 418.461538,0 Z M175,165 C150.131579,165 130,185.131579 130,210 C130,234.868421 150.131579,255 175,255 C199.868421,255 220,234.868421 220,210 C220,210 220,210 220,210 C220,185.131579 199.868421,165 175,165 Z M336,257 C311.131579,257 291,277.131579 291,302 C291,326.868421 311.131579,347 336,347 C360.868421,347 381,326.868421 381,302 C381,277.131579 360.868421,257 336,257 Z M335.99012,133 C372.531303,133 402,162.518072 402,199.120482 C402,209.746988 399.642504,220.373494 393.748765,231 C385.49753,223.915663 376.067547,219.192771 366.637564,215.650602 C368.99506,210.927711 370.173808,205.024096 370.173808,199.120482 C370.173808,180.228916 354.850086,164.879518 335.99012,164.879518 C317.130154,164.879518 301.806432,180.228916 301.806432,199.120482 C301.806432,205.024096 302.98518,209.746988 305.342675,215.650602 C295.912692,219.192771 286.48271,223.915663 278.231475,231 C260.550257,199.120482 272.337735,158.975904 304.163927,142.445783 C314.772658,135.361446 325.381389,133 335.99012,133 Z M175,378 C138.464286,378 109,348.535714 109,312 L140.821429,312 C139.642857,330.857143 153.785714,347.357143 172.642857,348.535714 C191.5,349.714286 208,335.571429 209.178571,316.714286 C209.178571,315.535714 209.178571,314.357143 209.178571,313.178571 L241,313.178571 C241,348.535714 211.535714,378 175,378 L175,378 Z M175,287 C132.353846,287 98,252.646154 98,210 C98,167.353846 132.353846,133 175,133 C217.646154,133 252,167.353846 252,210 C252,210 252,210 252,210 C252,252.646154 217.646154,287 175,287 L175,287 Z M416.35101,431 L376.147727,378.929821 L382.059974,374.196168 L376.147727,367.095689 C339.491792,389.580539 292.193812,378.929821 269.727272,342.244013 C247.260731,305.558205 257.902776,258.221679 294.558711,235.736829 C331.214646,213.251979 378.512626,223.902697 400.979166,260.588505 C421.080808,292.54066 415.16856,332.776708 387.972222,357.628384 L393.884469,364.728863 L399.796717,359.99521 L440,412.065389 L416.35101,431 Z" id="Shape"></path>
            </g>
        </g>
    </g>
</svg>